<svg height="512" viewBox="0 0 64 64" width="512" xmlns="http://www.w3.org/2000/svg"><g id="Online_Shopping-Ecommerce-Online_Shop-Shopping_Cart-Smartphone" data-name="Online Shopping-Ecommerce-Online Shop-Shopping Cart-Smartphone"><rect fill="#5aaae7" height="58" rx="5" width="38" x="20" y="3"/><g fill="#3d9ae2"><path d="m45 24h-4-4-4v4 4 4h4 4 4 4l.33-4 .34-4 .33-4z"/><circle cx="45" cy="42" r="2"/><circle cx="37" cy="42" r="2"/><path d="m27 20h-2a2.006 2.006 0 0 0 -2 2 2.015 2.015 0 0 0 2 2h2a2.006 2.006 0 0 0 2-2 2.015 2.015 0 0 0 -2-2z"/></g><path d="m48 22-.33 4h-4.67v-4z" fill="#ebbf00"/><path d="m47.67 26-.34 4h-4.33v-4z" fill="#ffde55"/><path d="m47.33 30-.33 4h-4v-4z" fill="#ebbf00"/><circle cx="43" cy="40" fill="#57565c" r="2"/><path d="m39 30h4v4h-4z" fill="#ffde55"/><path d="m39 26h4v4h-4z" fill="#ebbf00"/><path d="m39 22h4v4h-4z" fill="#ffde55"/><path d="m42.41 53.59a1.955 1.955 0 0 1 .59 1.41 2.006 2.006 0 0 1 -2 2h-4a2.015 2.015 0 0 1 -2-2 2.006 2.006 0 0 1 2-2h4a1.955 1.955 0 0 1 1.41.59z" fill="#e6e7e8"/><path d="m35 30h4v4h-4z" fill="#ebbf00"/><path d="m35 26h4v4h-4z" fill="#ffde55"/><path d="m35 22h4v4h-4z" fill="#ebbf00"/><circle cx="35" cy="40" fill="#57565c" r="2"/><path d="m31 30h4v4h-4z" fill="#ffde55"/><path d="m31 26h4v4h-4z" fill="#ebbf00"/><path d="m31 22h4v4h-4z" fill="#ffde55"/><path d="m26.41 18.59a1.955 1.955 0 0 1 .59 1.41 2.006 2.006 0 0 1 -2 2h-2a2.015 2.015 0 0 1 -2-2 2.006 2.006 0 0 1 2-2h2a1.955 1.955 0 0 1 1.41.59z" fill="#ff9811"/><path d="m19 25h2v2h-2z"/><path d="m59 8v48a6 6 0 0 1 -6 6h-28a6 6 0 0 1 -6-6v-15h2v15a4 4 0 0 0 4 4h28a4 4 0 0 0 4-4v-48a4 4 0 0 0 -4-4h-28a4 4 0 0 0 -4 4v7h-2v-7a6 6 0 0 1 6-6h28a6 6 0 0 1 6 6z"/><path d="m37 52a3 3 0 0 0 0 6h4a3 3 0 0 0 0-6zm5 3a1 1 0 0 1 -1 1h-4a1 1 0 0 1 0-2h4a1 1 0 0 1 1 1z"/><path d="m32 6h2v2h-2z"/><path d="m36 6h6v2h-6z"/><path d="m47 37h-15v-2h15a1.01 1.01 0 0 0 1-.92l1-12a1.055 1.055 0 0 0 -.26-.76 1.029 1.029 0 0 0 -.74-.32h-16.59l-1.7-1.71a1.033 1.033 0 0 0 -.71-.29h-1.18a3.01 3.01 0 0 0 -2.82-2h-2a3 3 0 0 0 0 6h2a3.01 3.01 0 0 0 2.82-2h.77l1.41 1.41v15.59a1 1 0 0 0 1 1h1.18a3 3 0 1 0 5.64 0h2.36a3 3 0 1 0 5.64 0h1.18a1 1 0 0 1 1 1h2a3.009 3.009 0 0 0 -3-3zm-3-14h2.91l-.16 2h-2.75zm0 4h2.58l-.17 2h-2.41zm0 4h2.25l-.17 2h-2.08zm-4-8h2v2h-2zm0 4h2v2h-2zm0 4h2v2h-2zm-4-8h2v2h-2zm0 4h2v2h-2zm0 4h2v2h-2zm-4-8h2v2h-2zm0 4h2v2h-2zm0 4h2v2h-2zm-7-10h-2a1 1 0 0 1 0-2h2a1 1 0 0 1 0 2zm10 20a1 1 0 1 1 1-1 1 1 0 0 1 -1 1zm8 0a1 1 0 1 1 1-1 1 1 0 0 1 -1 1z"/><path d="m6 37h2v2h-2z"/><path d="m10 37h4v2h-4z"/><path d="m16 37h12v2h-12z"/><path d="m13 33h10v2h-10z"/><path d="m18 29h8v2h-8z"/><path d="m14 29h2v2h-2z"/><path d="m9 33h2v2h-2z"/></g></svg>